<?xml version="1.0" standalone="no"?>
<!DOCTYPE svg PUBLIC "-//W3C//DTD SVG 20010904//EN"
 "http://www.w3.org/TR/2001/REC-SVG-20010904/DTD/svg10.dtd">
<svg version="1.0" xmlns="http://www.w3.org/2000/svg"
 width="3840.000000pt" height="2160.000000pt" viewBox="0 0 3840.000000 2160.000000"
 preserveAspectRatio="xMidYMid meet">

<g transform="translate(0.000000,2160.000000) scale(0.100000,-0.100000)"
fill="#000000" stroke="none">
<path d="M25512 16375 c-19 -8 -60 -42 -93 -75 -47 -48 -71 -86 -123 -193 -64
-133 -127 -224 -269 -387 -126 -144 -136 -173 -172 -471 -20 -171 -54 -300
-105 -398 -38 -71 -68 -115 -241 -351 -82 -112 -104 -155 -159 -315 -67 -194
-119 -398 -150 -586 -17 -101 -41 -206 -56 -245 -39 -100 -71 -213 -99 -341
-34 -162 -62 -210 -209 -373 -80 -88 -147 -193 -180 -281 -15 -41 -56 -186
-91 -324 -74 -290 -85 -392 -85 -788 0 -330 -37 -628 -97 -799 -9 -27 -20 -48
-23 -48 -4 0 -6 44 -6 98 1 92 -1 101 -33 162 -18 35 -38 78 -43 95 -8 27 -51
424 -79 735 -6 63 -8 149 -5 190 15 203 18 470 7 517 -14 56 -54 111 -114 154
l-40 29 2 182 c2 216 -6 255 -75 349 -26 34 -50 76 -55 93 -13 44 -11 137 6
338 24 270 6 341 -115 450 -38 33 -74 74 -81 90 -8 20 -10 72 -6 171 7 166 40
340 93 492 137 387 184 552 184 644 0 101 -56 176 -152 202 -84 22 -127 -14
-289 -241 -162 -227 -205 -324 -227 -515 -12 -106 -43 -209 -74 -253 -13 -17
-51 -64 -85 -104 -82 -95 -140 -211 -159 -319 -20 -107 -36 -162 -50 -166 -6
-2 -15 28 -22 74 -14 89 -34 122 -86 142 -33 12 -41 12 -71 -2 -19 -9 -46 -35
-61 -57 -15 -22 -29 -38 -32 -35 -3 3 0 43 7 89 11 74 11 88 -4 119 -27 57
-73 72 -137 44 -46 -19 -89 -77 -143 -192 -85 -179 -125 -353 -125 -541 0 -81
-10 -131 -85 -435 -108 -438 -117 -472 -182 -659 -75 -217 -120 -371 -137
-470 -36 -212 -29 -445 24 -780 35 -220 39 -292 29 -425 -18 -219 -50 -379
-96 -468 -13 -27 -79 -122 -144 -210 -182 -243 -217 -317 -240 -493 -13 -107
-7 -338 12 -426 7 -29 36 -119 66 -201 74 -204 91 -308 75 -476 -6 -70 -25
-192 -42 -272 -35 -165 -35 -176 17 -335 l36 -112 -13 -280 c-25 -526 4 -703
124 -762 92 -44 148 -6 226 155 38 77 53 122 65 194 27 164 93 407 136 498 74
162 84 208 83 383 -1 164 -24 326 -65 464 -38 125 -13 254 88 465 42 86 57
107 153 201 156 152 188 231 169 410 -5 47 -12 162 -15 255 l-6 170 55 275
c31 151 58 311 62 355 17 209 40 372 91 627 73 376 73 388 -12 768 -37 167
-19 309 86 678 63 224 95 306 128 335 20 18 20 18 28 -15 10 -47 8 -192 -6
-376 -19 -240 4 -310 150 -453 74 -72 79 -80 103 -160 29 -93 45 -113 157
-196 39 -29 72 -63 83 -85 22 -45 50 -187 76 -393 25 -197 47 -275 116 -425
89 -193 125 -320 125 -450 0 -64 10 -103 52 -218 l31 -83 -18 -140 c-30 -233
-9 -359 72 -449 45 -50 93 -75 177 -91 66 -12 123 -50 130 -86 3 -15 10 -86
16 -157 20 -240 57 -369 135 -476 85 -115 226 -144 315 -64 61 55 70 96 70
318 0 368 22 476 150 745 112 235 113 244 125 636 10 310 19 344 130 490 149
195 169 223 216 320 98 203 138 415 104 565 -30 135 -35 206 -24 312 17 165
100 601 119 621 4 5 10 -83 12 -195 5 -254 5 -254 156 -410 176 -182 182 -211
103 -447 -28 -81 -59 -188 -70 -238 -11 -50 -38 -139 -61 -197 -52 -133 -63
-207 -55 -371 10 -216 23 -288 78 -450 l52 -150 0 -360 0 -360 28 -105 c65
-240 152 -422 274 -571 102 -126 110 -160 68 -292 -14 -43 -25 -90 -25 -105 0
-15 -9 -73 -20 -130 -50 -257 -11 -391 139 -471 l61 -32 0 -127 c0 -287 30
-348 242 -490 140 -94 143 -98 140 -182 -1 -37 -6 -99 -12 -136 -30 -208 7
-304 117 -304 38 0 51 6 78 33 l33 33 23 -48 c25 -53 70 -104 101 -114 26 -8
99 3 118 19 50 39 63 108 36 197 -15 50 -40 224 -55 375 -12 132 -31 185 -113
318 -118 193 -141 247 -146 346 -3 67 3 119 26 236 39 195 45 258 32 325 -14
76 -48 140 -128 246 -107 141 -108 147 -89 377 22 262 19 282 -73 467 -73 147
-95 221 -95 320 0 83 1 88 62 220 34 74 70 165 82 202 58 192 67 383 26 542
-14 53 -25 109 -25 124 0 15 14 97 31 182 22 109 32 186 33 260 1 117 -2 126
-74 204 -76 84 -89 138 -70 303 13 109 12 117 -8 176 -18 54 -21 82 -20 212 2
174 -10 232 -94 450 -28 71 -54 146 -59 165 -4 19 -9 123 -10 230 -5 494 -32
679 -165 1165 -46 165 -51 251 -30 555 17 261 41 422 81 550 15 47 80 211 145
365 236 559 254 611 248 711 -11 164 -109 250 -226 199z m89 -121 c21 -23 24
-34 23 -102 -1 -87 -1 -89 -232 -637 -72 -170 -143 -350 -157 -400 -56 -194
-88 -485 -89 -815 l-1 -185 52 -190 c123 -449 152 -667 153 -1145 0 -175 7
-212 70 -370 84 -211 93 -255 92 -440 0 -145 2 -170 20 -212 20 -46 20 -54 8
-158 -20 -177 4 -276 90 -370 29 -33 52 -68 56 -88 9 -45 -3 -142 -37 -311
-35 -176 -36 -192 -3 -316 24 -90 26 -113 21 -230 -6 -163 -34 -276 -110 -440
-76 -164 -91 -221 -84 -315 8 -99 36 -187 112 -350 35 -74 66 -154 70 -177 4
-23 -1 -119 -10 -214 -10 -95 -15 -196 -11 -224 7 -66 52 -153 122 -240 90
-113 108 -154 107 -255 -1 -54 -10 -125 -27 -195 -15 -64 -29 -156 -33 -220
-9 -171 7 -217 161 -469 80 -131 92 -171 106 -341 5 -71 21 -184 35 -250 28
-139 30 -155 12 -155 -17 0 -51 61 -71 129 -23 80 -40 101 -79 101 -36 0 -78
-36 -116 -99 -18 -31 -21 -33 -27 -16 -4 10 1 92 10 181 11 96 16 182 11 210
-9 62 -50 105 -195 202 -145 98 -166 126 -180 247 -6 49 -8 134 -5 190 8 130
-3 155 -95 202 -81 42 -104 64 -119 112 -16 56 -14 126 9 243 11 57 20 115 20
129 0 14 11 63 25 109 47 156 30 243 -71 365 -131 157 -218 339 -277 575 -19
78 -21 114 -21 445 l-1 360 -52 150 c-59 172 -73 262 -73 485 l0 140 49 132
c27 73 56 167 64 208 9 41 39 145 68 230 44 130 52 167 53 230 1 108 -29 162
-175 316 -69 72 -119 133 -123 150 -4 16 -11 149 -14 295 -6 243 -9 269 -26
288 -29 32 -76 28 -114 -11 -63 -66 -108 -207 -168 -528 -48 -258 -55 -424
-25 -557 31 -137 28 -217 -14 -364 -46 -160 -103 -266 -231 -431 -177 -228
-181 -239 -194 -608 -15 -380 -14 -378 -114 -588 -79 -168 -111 -251 -137
-352 -6 -25 -14 -175 -18 -335 -8 -314 -12 -341 -62 -359 -38 -13 -74 -1 -113
38 -75 75 -115 216 -136 471 -7 93 -17 153 -30 181 -30 68 -115 119 -232 139
-118 19 -165 154 -134 385 23 169 21 201 -20 310 -29 79 -37 116 -44 215 -13
169 -28 218 -154 501 -48 108 -62 169 -86 359 -44 344 -75 439 -170 513 -124
96 -137 110 -145 149 -14 79 -54 145 -134 223 -49 47 -86 93 -101 125 -22 49
-23 54 -14 225 13 253 11 417 -5 472 -23 79 -85 119 -146 94 -74 -31 -122
-125 -200 -395 -93 -321 -117 -431 -122 -571 -5 -116 -2 -137 30 -285 68 -309
68 -316 -8 -689 -46 -228 -67 -373 -85 -581 -5 -66 -33 -230 -61 -365 -62
-301 -70 -417 -44 -654 9 -88 14 -178 11 -200 -11 -65 -53 -130 -123 -187 -83
-69 -138 -143 -195 -261 -58 -119 -94 -225 -109 -317 -12 -83 -8 -127 26 -256
52 -194 70 -451 40 -566 -9 -32 -37 -109 -64 -171 -49 -111 -99 -295 -141
-510 -19 -96 -68 -220 -107 -267 l-20 -24 -21 21 c-52 52 -68 235 -50 572 19
364 19 377 -25 501 -20 58 -37 123 -37 144 0 21 14 106 32 189 28 134 32 170
32 321 1 198 -6 235 -92 470 -52 144 -55 156 -62 285 -9 149 2 314 25 380 28
79 80 163 202 329 68 91 137 193 152 226 53 109 85 266 103 507 13 165 7 225
-47 553 -21 125 -31 468 -16 577 16 119 39 204 137 494 46 138 91 282 100 320
8 38 51 212 95 387 70 280 79 328 79 409 0 118 25 284 57 378 36 107 128 289
139 277 2 -2 -5 -46 -16 -98 -32 -155 -23 -251 26 -269 40 -16 68 7 145 113
l73 101 17 -85 c26 -132 51 -170 114 -172 69 -2 119 77 156 243 35 164 80 250
191 368 80 85 127 210 148 398 16 149 52 226 203 434 155 213 146 206 205 170
30 -18 32 -24 32 -72 0 -79 -42 -229 -142 -508 -93 -258 -138 -479 -138 -674
0 -151 10 -177 102 -271 44 -44 86 -93 95 -109 20 -39 21 -137 4 -364 -17
-217 -10 -288 38 -361 16 -25 43 -66 58 -91 l28 -45 0 -210 c1 -115 4 -219 8
-230 4 -11 35 -37 68 -59 96 -61 94 -53 82 -403 -11 -318 -10 -328 36 -788 32
-317 44 -377 92 -463 30 -53 30 -54 24 -170 -7 -112 -6 -118 17 -152 51 -75
134 -59 188 36 87 154 140 496 140 900 0 121 5 292 11 380 9 143 17 184 75
411 92 362 106 391 273 583 134 152 169 222 211 410 18 80 52 201 76 270 32
88 52 170 69 280 29 177 76 366 140 557 58 176 80 219 176 347 270 362 305
445 352 826 28 223 34 237 153 375 143 167 203 254 269 391 53 108 73 139 115
177 29 26 55 47 59 47 4 0 18 -12 32 -26z"/>
<path d="M2815 15569 c-103 -8 -161 -21 -225 -54 -45 -23 -251 -176 -447 -332
-57 -45 -134 -100 -172 -123 -156 -93 -233 -102 -423 -51 -142 38 -187 39
-275 6 -141 -53 -278 -148 -384 -265 -41 -45 -87 -88 -102 -96 -25 -14 -32
-13 -85 10 -60 27 -71 29 -114 27 -34 -1 -93 -52 -118 -102 -53 -102 -48 -283
10 -404 24 -51 51 -83 126 -152 125 -116 139 -145 138 -283 0 -88 -6 -130 -38
-260 -29 -114 -40 -184 -44 -264 -10 -215 34 -311 244 -542 183 -200 208 -248
207 -389 -1 -68 -10 -124 -37 -229 -43 -165 -47 -243 -14 -301 18 -33 22 -57
23 -135 1 -91 3 -98 40 -170 l40 -75 -4 -100 c-9 -265 -8 -275 25 -345 17 -36
66 -108 108 -160 43 -52 87 -113 98 -134 22 -42 21 -76 -1 -204 -16 -86 -4
-143 70 -349 34 -92 76 -227 94 -299 33 -127 58 -305 51 -355 -2 -13 -7 -53
-11 -88 -3 -35 -20 -103 -36 -150 -62 -176 -63 -179 -49 -238 8 -39 29 -76 77
-141 77 -103 113 -172 153 -291 43 -128 40 -163 -19 -276 -64 -123 -75 -175
-68 -350 6 -167 17 -208 92 -330 39 -63 66 -124 91 -203 39 -124 61 -169 109
-222 57 -63 65 -84 65 -163 0 -41 4 -97 9 -124 7 -35 6 -90 -4 -180 -20 -192
-11 -218 107 -306 130 -97 122 -78 129 -305 6 -219 16 -262 84 -354 49 -67 94
-98 154 -105 43 -5 56 -2 86 18 20 14 46 46 60 73 30 59 32 129 13 352 l-11
141 23 33 c13 19 55 68 92 109 83 93 128 173 135 245 8 78 -2 116 -53 192 -54
83 -73 142 -80 249 -6 75 -3 89 36 210 34 103 43 146 43 205 2 91 -16 135
-122 295 -109 165 -125 199 -125 270 0 52 8 76 62 190 116 245 120 372 22 583
-22 47 -40 90 -40 97 0 7 16 55 36 106 50 131 47 173 -30 338 -97 208 -103
296 -26 373 62 62 71 58 234 -100 101 -99 159 -147 199 -167 55 -26 63 -27
155 -22 53 4 118 9 144 13 47 6 47 6 102 -49 62 -64 145 -186 207 -306 24 -46
67 -108 94 -137 87 -92 157 -91 273 3 30 24 64 43 77 43 16 0 50 -24 98 -69
41 -38 85 -74 97 -81 12 -7 60 -15 106 -20 60 -5 90 -13 105 -26 27 -25 127
-203 155 -278 13 -34 32 -93 43 -132 15 -51 32 -84 61 -117 70 -80 142 -85
295 -22 46 19 95 35 109 35 35 0 64 -42 142 -206 36 -76 79 -167 95 -201 62
-130 205 -235 339 -248 36 -4 75 -13 87 -21 12 -7 54 -78 93 -156 89 -177 166
-294 227 -348 26 -23 98 -73 160 -111 150 -93 230 -155 249 -191 12 -24 14
-48 9 -107 -12 -146 46 -280 236 -546 66 -93 132 -192 146 -220 14 -27 38 -66
54 -86 28 -36 121 -90 211 -124 72 -27 122 -76 184 -183 99 -169 134 -202 215
-202 33 0 47 6 74 33 45 45 52 90 30 191 -10 45 -21 128 -25 186 -14 204 -119
505 -254 734 -53 89 -64 102 -220 270 -116 123 -166 188 -166 215 0 9 -7 69
-15 133 -16 138 -35 186 -109 278 -59 72 -120 119 -195 147 -64 24 -156 79
-202 120 -24 22 -61 79 -104 164 -80 154 -126 206 -213 237 -77 29 -137 73
-160 119 -11 21 -38 103 -61 183 -75 263 -130 344 -326 483 -55 39 -101 71
-103 72 -2 2 -34 73 -72 160 -92 210 -138 285 -229 375 -83 82 -154 123 -244
142 -51 11 -65 10 -132 -10 -42 -12 -80 -20 -85 -17 -6 3 -35 56 -67 117 -64
126 -112 182 -167 192 -48 9 -101 -2 -122 -25 -9 -10 -21 -19 -25 -19 -5 0
-41 64 -80 142 -138 276 -217 358 -343 358 -47 0 -57 4 -76 27 -11 15 -19 34
-18 42 2 9 41 36 86 61 113 62 161 113 222 231 67 131 92 147 257 169 153 20
199 41 291 132 126 125 202 296 248 557 l18 103 53 39 c98 73 134 168 132 349
0 63 0 126 0 140 1 16 30 61 77 120 168 209 197 333 159 677 -17 149 -16 170
22 313 18 69 25 122 26 195 1 143 -20 192 -132 308 l-86 89 2 72 c2 39 6 139
10 221 15 289 -5 364 -124 476 -127 118 -234 140 -389 80 -83 -33 -154 -40
-172 -18 -6 7 -16 56 -22 108 -13 119 -25 165 -55 210 -44 68 -121 83 -302 58
-54 -7 -92 -7 -116 -1 -19 6 -93 47 -164 93 -70 46 -198 115 -283 155 -85 39
-202 99 -260 134 -134 80 -187 104 -280 123 -90 19 -184 24 -305 16z m334
-134 c29 -11 95 -43 145 -72 115 -67 304 -164 385 -197 34 -14 114 -59 177
-101 204 -134 236 -144 398 -125 138 17 172 10 191 -37 9 -21 20 -82 26 -136
6 -59 18 -115 28 -136 44 -85 160 -105 296 -51 86 34 159 39 208 13 52 -26
107 -75 140 -122 26 -38 31 -56 36 -130 3 -47 2 -142 -2 -211 -16 -252 -14
-301 10 -346 12 -23 49 -65 83 -94 88 -77 114 -132 114 -240 -1 -59 -9 -115
-26 -180 -38 -138 -41 -188 -24 -343 37 -321 14 -417 -139 -602 -41 -49 -80
-104 -86 -122 -6 -18 -11 -103 -12 -190 -2 -188 -12 -214 -106 -288 -33 -26
-62 -54 -66 -63 -3 -9 -17 -76 -30 -148 -41 -222 -108 -375 -208 -477 -66 -67
-108 -86 -226 -104 -221 -32 -263 -60 -352 -234 -57 -110 -78 -131 -200 -195
-78 -41 -136 -98 -145 -140 -5 -26 0 -38 35 -78 22 -26 46 -56 52 -67 17 -32
69 -49 128 -42 38 4 57 2 75 -11 44 -28 102 -116 194 -292 97 -186 118 -221
144 -229 23 -8 70 18 101 55 14 16 32 30 39 30 23 0 83 -89 131 -191 46 -100
81 -139 125 -139 13 0 59 12 102 26 75 26 78 26 132 10 30 -9 79 -34 109 -58
105 -80 173 -185 276 -427 24 -58 56 -120 69 -137 13 -18 63 -58 111 -90 48
-32 115 -85 149 -118 70 -71 93 -121 159 -349 48 -168 79 -222 157 -280 28
-20 77 -46 110 -58 73 -27 96 -54 177 -208 89 -169 147 -224 329 -307 101 -47
142 -79 196 -154 44 -59 53 -92 67 -230 16 -169 23 -180 221 -388 64 -68 138
-154 163 -192 59 -89 156 -292 188 -395 62 -198 70 -235 78 -340 4 -60 15
-143 24 -182 34 -145 -9 -128 -111 45 -83 140 -133 187 -251 236 -127 53 -154
74 -193 147 -18 35 -90 143 -158 239 -185 259 -233 372 -213 496 10 68 -1 111
-44 174 -30 43 -77 79 -280 213 -172 113 -204 151 -316 370 -86 169 -139 239
-192 256 -18 6 -63 15 -101 20 -54 8 -81 18 -123 47 -72 50 -103 91 -158 214
-74 166 -142 293 -180 337 -62 73 -117 77 -253 21 -159 -66 -194 -57 -228 62
-26 91 -54 159 -117 282 -91 180 -142 228 -239 228 -79 1 -118 16 -172 68
-136 131 -205 140 -321 42 -32 -27 -67 -50 -77 -50 -33 0 -86 63 -144 170 -74
137 -145 239 -216 311 -72 71 -108 84 -202 73 -39 -4 -103 -8 -143 -8 -90 1
-109 13 -283 180 -127 123 -170 154 -213 154 -37 0 -123 -48 -158 -88 -103
-117 -98 -245 22 -503 27 -58 49 -120 49 -138 0 -17 -16 -73 -36 -124 -44
-112 -43 -140 14 -263 87 -190 84 -273 -21 -494 -65 -138 -69 -154 -68 -249 2
-91 24 -142 142 -321 124 -189 127 -208 61 -405 -34 -101 -37 -119 -37 -220 1
-136 25 -221 90 -320 75 -115 60 -169 -94 -343 -50 -57 -96 -113 -102 -124
-14 -25 -13 -103 0 -228 22 -194 9 -310 -34 -310 -26 0 -84 61 -112 118 -27
55 -28 63 -33 257 -4 161 -8 206 -22 231 -18 32 -69 81 -162 154 l-57 45 7
120 c10 153 10 172 -3 336 -6 75 -16 146 -22 158 -7 12 -36 48 -66 82 -49 55
-58 72 -94 187 -30 93 -57 154 -101 226 -33 55 -63 115 -67 135 -5 20 -8 101
-8 181 0 158 -2 152 83 305 24 45 27 59 26 145 0 81 -5 108 -33 185 -47 127
-83 196 -156 292 -35 47 -66 97 -70 113 -4 19 3 53 24 106 121 318 101 560
-89 1079 -61 167 -65 192 -44 290 19 96 14 175 -15 233 -12 23 -50 77 -84 119
-138 170 -154 207 -141 327 5 45 9 122 9 171 0 86 -2 94 -42 178 -41 86 -42
90 -36 161 5 66 3 78 -21 127 -34 66 -32 118 7 262 38 140 52 263 37 344 -20
115 -70 197 -220 359 -122 131 -194 236 -216 311 -25 87 -15 233 31 423 43
182 52 271 36 364 -19 107 -44 148 -158 259 -127 124 -147 164 -147 302 0 99
18 159 52 169 11 4 49 -4 87 -19 37 -14 80 -25 95 -25 36 0 106 55 183 143
111 126 333 257 437 257 14 0 62 -11 107 -24 45 -14 115 -29 156 -36 96 -14
189 4 301 60 80 39 132 76 446 320 261 203 283 211 530 206 119 -2 168 -7 209
-21z"/>
<path d="M2683 14150 c-51 -12 -113 -53 -249 -165 -162 -133 -223 -165 -313
-165 -36 0 -106 7 -156 15 -49 8 -106 12 -125 9 -79 -15 -121 -73 -146 -201
-30 -161 -14 -229 85 -353 48 -58 52 -68 46 -100 -13 -67 -16 -297 -6 -388 12
-111 28 -144 85 -177 32 -19 49 -37 61 -67 9 -23 32 -59 51 -82 35 -41 36 -42
32 -121 -2 -46 -11 -95 -20 -115 -28 -60 -29 -77 -13 -142 23 -89 46 -120 125
-172 103 -68 105 -74 105 -301 0 -180 1 -192 22 -221 17 -24 88 -84 142 -121
13 -9 -2 -70 -32 -130 -46 -91 -69 -172 -69 -243 0 -90 31 -136 97 -146 49 -7
70 2 135 56 84 69 147 90 201 67 19 -8 66 -42 106 -75 39 -33 82 -64 95 -68
71 -22 133 11 242 130 132 146 241 206 456 251 269 57 321 126 374 495 29 204
45 245 116 296 42 30 58 51 81 100 22 49 40 73 83 106 79 61 90 87 96 243 7
168 0 200 -66 296 -67 99 -65 118 14 202 52 55 54 60 50 101 -7 59 -42 106
-197 270 -164 173 -168 178 -141 248 11 29 20 65 20 80 0 68 -83 213 -154 269
-42 33 -104 29 -188 -10 -153 -71 -226 -26 -319 198 -17 42 -38 84 -47 93 -27
31 -74 37 -179 22 -99 -14 -155 -11 -318 16 -68 11 -135 11 -182 0z m266 -127
c98 -14 132 -15 220 -5 117 13 123 11 142 -46 37 -116 130 -240 208 -279 59
-29 152 -23 235 15 38 18 77 32 87 32 23 0 78 -56 95 -97 18 -41 17 -84 -1
-152 -17 -65 -9 -114 29 -171 25 -38 226 -254 277 -297 45 -39 43 -59 -12
-116 -92 -97 -93 -168 -6 -295 l57 -83 0 -122 c0 -67 -3 -132 -6 -144 -3 -12
-30 -41 -60 -63 -38 -29 -63 -58 -83 -99 -17 -33 -59 -87 -99 -127 -62 -62
-73 -78 -91 -140 -11 -38 -25 -112 -31 -164 -26 -212 -56 -312 -108 -362 -42
-40 -66 -49 -204 -77 -211 -44 -327 -109 -489 -273 -58 -60 -112 -108 -120
-108 -8 0 -44 25 -79 55 -90 76 -141 100 -215 100 -69 -1 -128 -25 -206 -87
-31 -24 -56 -37 -66 -34 -26 10 -8 90 48 207 79 169 69 249 -43 318 -32 20
-61 45 -65 56 -4 11 -8 99 -8 195 0 172 -1 176 -28 232 -24 49 -40 66 -105
110 -62 43 -79 61 -90 92 -17 54 -16 73 7 136 14 38 20 80 21 135 0 83 -5 98
-65 195 -11 17 -32 51 -47 75 -15 24 -45 55 -67 69 -31 20 -42 34 -48 63 -10
47 -9 336 2 419 8 71 0 93 -69 174 -78 91 -89 136 -65 266 20 112 31 117 204
88 178 -30 273 1 458 153 60 48 135 107 168 131 57 40 64 42 131 42 39 0 123
-8 187 -17z"/>
<path d="M34058 13994 c-65 -35 -79 -124 -48 -309 18 -111 21 -164 19 -370 -2
-132 -7 -245 -12 -252 -4 -6 -21 -15 -37 -18 -41 -9 -79 -64 -91 -132 -7 -34
-9 -124 -6 -218 4 -139 9 -174 36 -269 30 -106 30 -116 32 -340 4 -380 15
-581 37 -666 11 -41 47 -143 80 -226 80 -200 92 -265 106 -581 5 -103 23 -150
82 -208 41 -41 71 -55 120 -55 21 0 34 -5 34 -13 0 -21 -58 -284 -81 -365 -12
-42 -49 -156 -84 -252 -98 -278 -100 -290 -79 -524 l10 -109 -36 -23 c-49 -32
-242 -105 -422 -159 -154 -47 -236 -81 -275 -114 -65 -55 -84 -155 -39 -208
13 -16 36 -35 50 -42 25 -14 24 -15 -92 -85 -163 -99 -255 -171 -359 -280
-106 -110 -143 -176 -143 -253 0 -44 8 -69 50 -148 28 -52 50 -102 50 -111 0
-46 -173 -235 -349 -382 -220 -184 -248 -215 -277 -313 -14 -45 -19 -51 -82
-84 -141 -74 -208 -142 -298 -305 -63 -114 -116 -161 -270 -244 -290 -156
-340 -192 -658 -474 -219 -195 -239 -216 -299 -314 -76 -126 -82 -210 -20
-279 44 -49 95 -64 164 -50 72 16 105 36 184 111 39 36 95 86 125 110 30 25
109 97 175 160 138 132 238 203 333 235 37 13 157 42 267 65 236 48 312 71
381 116 117 74 277 223 442 409 162 184 210 231 307 304 109 82 147 127 190
229 34 82 135 257 207 359 24 34 106 133 184 220 77 87 150 172 161 188 12 17
36 79 52 138 17 60 40 125 50 145 43 84 159 188 361 322 210 140 514 367 563
420 33 35 72 96 104 162 46 92 64 115 140 189 126 121 234 190 375 239 64 21
142 51 174 65 143 63 336 223 417 345 21 30 51 95 69 144 31 86 34 90 97 138
36 27 126 78 199 114 170 84 295 167 391 258 51 49 117 96 201 145 249 146
317 199 687 545 249 232 268 254 268 317 0 55 -20 83 -80 110 -64 29 -104 24
-197 -25 -46 -24 -144 -69 -218 -101 -223 -95 -259 -117 -392 -243 -131 -124
-197 -171 -354 -251 -61 -31 -133 -79 -184 -122 -104 -87 -125 -98 -275 -139
-83 -23 -157 -53 -243 -97 -104 -54 -147 -70 -270 -99 -80 -19 -164 -43 -187
-53 -59 -26 -110 -74 -167 -159 -27 -40 -52 -72 -54 -70 -2 3 8 43 22 89 52
173 23 289 -116 460 -62 77 -68 89 -74 144 -9 83 -12 90 -69 175 l-49 75 6
246 c8 321 -18 629 -61 712 -8 18 -56 73 -104 123 l-89 90 -49 140 c-27 76
-71 196 -99 266 -37 92 -56 154 -66 227 -19 127 -39 203 -78 300 -16 42 -52
140 -79 218 -43 126 -213 488 -251 533 -40 49 -91 61 -140 34z m157 -302 c48
-97 112 -247 142 -332 30 -85 70 -198 88 -250 20 -55 41 -143 50 -210 14 -95
27 -142 80 -275 35 -88 83 -216 106 -285 l42 -125 90 -92 c50 -50 96 -102 104
-116 7 -14 20 -80 30 -148 14 -100 17 -186 15 -447 -2 -358 -4 -349 66 -447
31 -43 41 -68 46 -113 11 -90 24 -118 92 -200 87 -104 124 -179 124 -251 0
-71 -56 -252 -100 -323 -75 -121 -32 -195 80 -138 58 30 173 142 218 213 49
76 87 115 131 134 19 8 103 32 188 53 125 31 172 49 256 94 68 36 150 69 249
99 165 50 200 68 311 162 45 37 118 85 170 111 141 71 242 142 370 263 127
120 154 136 357 221 69 29 162 72 207 97 84 45 125 52 131 22 4 -24 -329 -342
-571 -545 -100 -84 -134 -107 -349 -234 -68 -40 -136 -91 -184 -137 -95 -91
-195 -158 -344 -230 -133 -64 -231 -125 -295 -184 -34 -31 -52 -60 -76 -122
-48 -126 -64 -152 -147 -238 -121 -127 -274 -219 -466 -278 -122 -38 -234
-106 -365 -221 -96 -84 -147 -151 -206 -268 -28 -55 -65 -111 -93 -140 -49
-49 -249 -195 -527 -385 -213 -145 -311 -230 -375 -322 -37 -53 -56 -101 -85
-209 -13 -48 -31 -98 -38 -110 -8 -11 -81 -95 -162 -186 -81 -91 -176 -209
-211 -262 -86 -131 -170 -282 -190 -340 -20 -62 -80 -128 -177 -195 -53 -38
-114 -96 -185 -177 -205 -231 -243 -272 -340 -359 -195 -178 -224 -193 -516
-252 -383 -79 -441 -109 -717 -370 -170 -160 -292 -270 -321 -289 -44 -29 -93
-36 -119 -18 -17 12 -20 22 -16 52 9 66 82 174 176 259 396 360 489 431 730
560 243 130 272 155 366 321 74 131 124 182 258 260 59 34 107 64 107 65 0 2
7 32 16 67 19 76 30 88 229 258 290 246 428 416 410 504 -4 17 -29 72 -56 123
-27 50 -49 105 -49 121 0 40 66 128 170 225 80 76 185 149 383 269 90 55 96
60 102 98 9 50 -6 69 -75 99 -27 12 -52 26 -55 31 -26 42 59 88 281 154 182
55 437 156 470 187 41 39 47 76 33 212 -20 187 -17 223 36 377 101 293 128
380 161 525 44 195 52 271 31 312 -19 35 -64 55 -107 46 -36 -7 -74 15 -93 55
-9 16 -19 97 -26 207 -15 232 -35 327 -109 511 -33 82 -68 179 -77 214 -18 68
-34 403 -35 721 0 143 -3 167 -31 270 -26 95 -31 138 -35 259 -3 80 -1 165 3
190 8 40 12 45 45 53 66 16 82 45 89 160 15 224 10 463 -11 600 -20 126 -20
184 0 172 5 -3 48 -85 95 -183z"/>
<path d="M6165 13949 c-52 -12 -127 -62 -160 -104 -70 -93 -83 -187 -39 -290
52 -123 54 -99 -29 -273 -91 -190 -97 -208 -97 -288 0 -128 76 -244 183 -281
40 -14 59 -30 94 -74 60 -76 121 -109 203 -109 85 0 133 16 186 63 79 70 101
133 114 333 8 108 17 163 40 240 40 133 47 196 26 267 -29 101 -114 160 -196
137 -19 -6 -38 -10 -43 -10 -4 0 -5 46 -1 103 12 179 -31 261 -148 287 -57 12
-78 11 -133 -1z m150 -131 c19 -17 20 -30 17 -167 -3 -144 -2 -150 21 -176 20
-24 31 -28 73 -27 27 0 65 3 86 7 31 6 38 4 52 -17 32 -49 30 -98 -8 -235 -29
-102 -38 -158 -45 -269 -5 -76 -15 -155 -22 -174 -29 -82 -79 -120 -159 -120
-58 0 -88 19 -142 88 -36 46 -57 64 -95 78 -26 9 -61 26 -77 37 -59 41 -82
148 -51 238 8 24 45 104 83 178 81 162 86 203 34 311 -36 74 -40 120 -13 170
50 94 185 137 246 78z"/>
<path d="M10821 13825 c-18 -9 -61 -44 -95 -79 l-61 -65 -72 36 c-69 34 -74
35 -120 24 -26 -7 -56 -20 -67 -29 -29 -27 -55 -85 -64 -147 -10 -64 -9 -85
16 -230 12 -75 16 -163 17 -355 0 -246 -1 -261 -33 -435 -44 -241 -79 -381
-157 -625 -76 -242 -81 -262 -99 -448 -12 -116 -19 -152 -40 -191 -67 -130
-139 -337 -161 -464 -13 -80 44 -195 116 -233 36 -18 82 -18 119 1 25 13 176
178 252 275 31 40 58 36 58 -10 0 -17 -16 -72 -36 -123 -32 -81 -38 -107 -44
-217 -12 -189 -51 -400 -84 -442 -52 -69 -84 -186 -66 -247 5 -18 26 -58 46
-87 l37 -53 -7 -83 c-9 -115 -30 -256 -65 -438 -17 -85 -37 -209 -46 -274 -11
-81 -27 -147 -49 -206 -72 -186 -118 -385 -118 -511 0 -80 12 -117 57 -178 14
-19 25 -48 25 -65 0 -78 75 -145 147 -131 47 9 93 57 118 121 10 27 26 61 37
76 31 45 56 110 78 201 11 48 42 132 69 189 73 151 105 274 172 658 57 330 74
427 85 478 5 23 7 23 68 17 82 -9 124 10 177 81 22 29 47 55 55 58 24 9 50
-27 73 -100 29 -91 57 -130 109 -155 56 -28 75 -55 170 -244 89 -177 102 -215
133 -389 33 -189 45 -212 174 -346 132 -135 159 -182 230 -400 57 -174 80
-222 190 -389 46 -70 89 -140 95 -155 5 -15 23 -93 40 -173 16 -80 38 -160 48
-177 26 -45 31 -67 42 -222 11 -164 31 -216 95 -251 51 -29 91 -29 145 0 60
31 86 83 95 186 l7 81 30 -22 c43 -30 114 -35 154 -10 53 34 67 80 61 201 -7
142 -25 215 -119 474 -136 376 -176 536 -232 922 -37 262 -52 313 -120 420
-140 219 -151 247 -166 390 -13 128 -37 198 -91 258 -49 57 -118 91 -234 116
-49 11 -102 24 -117 30 -45 17 -103 77 -169 174 -34 51 -99 139 -144 197 -105
134 -152 208 -175 275 -24 70 -33 86 -80 140 -61 70 -93 140 -87 187 7 52 53
145 82 164 12 8 62 26 111 39 95 26 214 82 372 175 186 110 256 196 323 397
56 169 107 269 160 318 24 22 98 72 164 109 239 137 318 210 404 375 41 76 66
112 100 139 25 20 80 71 121 112 41 41 98 88 125 104 119 70 162 129 152 212
-11 105 -111 147 -261 108 -156 -40 -490 -256 -694 -448 -72 -69 -156 -141
-185 -160 -30 -20 -93 -79 -141 -131 -129 -140 -142 -148 -243 -156 -114 -9
-185 -45 -300 -152 -160 -149 -226 -193 -355 -237 -37 -13 -89 -40 -116 -61
l-49 -37 -11 37 c-6 20 -16 67 -22 104 -11 69 -11 69 29 155 58 126 73 196 75
342 l1 125 -35 60 c-34 59 -34 63 -40 205 -5 123 -11 159 -35 231 l-28 86 26
74 c14 41 44 126 66 189 55 155 67 248 53 390 -16 159 -48 225 -127 261 -48
22 -98 23 -144 4z m112 -115 c29 -23 44 -77 52 -200 7 -102 -9 -197 -55 -320
-63 -169 -90 -254 -90 -285 0 -17 12 -65 26 -106 22 -61 28 -100 33 -224 6
-121 11 -157 27 -184 10 -18 25 -44 32 -57 18 -34 17 -233 -3 -307 -8 -31 -28
-83 -44 -115 -52 -102 -55 -125 -37 -248 9 -60 16 -139 16 -174 0 -71 18 -110
49 -110 18 0 82 44 163 112 24 20 81 50 128 68 145 55 199 91 348 232 119 111
189 148 280 148 97 0 136 24 282 170 69 69 144 139 166 154 23 15 102 84 175
153 255 241 630 457 743 429 51 -13 25 -69 -52 -113 -60 -34 -123 -84 -188
-148 -28 -27 -77 -75 -110 -106 -43 -39 -72 -80 -104 -140 -23 -46 -56 -103
-71 -125 -37 -55 -144 -134 -303 -225 -179 -102 -225 -147 -286 -273 -26 -56
-64 -151 -84 -212 -59 -180 -105 -236 -278 -339 -158 -95 -237 -132 -341 -162
-134 -38 -158 -52 -205 -125 -102 -159 -93 -277 33 -432 25 -31 57 -86 72
-123 33 -86 72 -147 187 -298 51 -66 117 -155 146 -199 114 -165 174 -211 320
-241 116 -24 164 -43 198 -78 44 -45 61 -92 72 -204 6 -53 15 -115 21 -137 15
-55 68 -159 123 -239 55 -80 90 -149 105 -202 5 -22 24 -139 41 -260 50 -354
106 -571 245 -950 71 -196 105 -336 105 -439 0 -52 -4 -68 -16 -73 -26 -10
-81 56 -119 142 -19 43 -41 87 -49 97 -34 39 -87 6 -89 -54 0 -18 5 -76 13
-128 8 -62 10 -125 5 -183 -6 -77 -10 -90 -31 -104 -22 -14 -26 -14 -48 1 -21
13 -25 26 -30 83 -19 228 -25 263 -51 320 -14 32 -35 105 -46 163 -32 167 -52
218 -142 357 -123 188 -130 203 -191 386 -78 236 -108 290 -232 412 -56 55
-110 118 -121 140 -12 22 -30 96 -42 165 -32 181 -52 240 -145 427 -101 203
-131 245 -195 277 -41 21 -52 33 -65 71 -9 24 -24 65 -33 91 -21 60 -60 99
-112 115 -66 20 -113 -1 -171 -76 -26 -33 -54 -61 -64 -63 -9 -2 -37 3 -62 12
-40 13 -50 14 -79 1 -62 -25 -73 -65 -145 -495 -79 -472 -108 -588 -187 -744
-25 -51 -55 -131 -69 -187 -25 -101 -128 -324 -145 -313 -5 3 -16 30 -25 61
-9 32 -28 67 -43 80 -23 22 -26 34 -30 104 -5 119 29 262 127 529 11 30 32
138 46 240 15 102 33 210 41 240 25 98 57 342 59 450 l1 106 -42 64 c-41 63
-42 66 -32 113 6 26 26 69 44 96 18 26 38 66 44 87 23 87 54 296 60 409 5 75
13 135 24 160 64 153 59 333 -9 364 -67 30 -99 9 -259 -174 -155 -177 -175
-186 -210 -103 -13 33 -13 45 0 109 21 99 59 204 122 342 54 116 55 119 69
270 17 175 16 170 95 422 77 243 109 372 156 620 l38 200 0 265 c-1 170 -5
292 -14 340 -16 97 -25 232 -17 265 4 14 15 34 26 45 18 18 21 18 52 3 18 -9
42 -24 53 -34 33 -29 71 -40 103 -28 15 6 61 46 102 90 80 85 100 93 143 59z"/>
<path d="M32465 13427 c-90 -44 -167 -138 -205 -252 -11 -34 -37 -89 -57 -121
-19 -33 -52 -95 -73 -139 -21 -44 -58 -114 -84 -155 -77 -124 -95 -187 -120
-427 -12 -115 -19 -142 -61 -244 -69 -168 -75 -196 -83 -389 -8 -165 -10 -178
-36 -230 -75 -144 -80 -169 -79 -355 2 -170 -5 -223 -33 -246 -8 -7 -60 -16
-114 -20 -108 -8 -169 -29 -232 -80 -50 -40 -78 -49 -151 -49 -98 -1 -171 -40
-208 -112 -25 -49 -24 -94 4 -143 44 -77 129 -115 259 -115 52 0 84 -5 108
-18 306 -163 310 -165 374 -157 l59 6 -7 -33 c-3 -18 -30 -82 -58 -142 -50
-106 -52 -112 -55 -215 -4 -98 -7 -112 -40 -177 -63 -128 -56 -206 38 -426
l32 -77 -26 -58 c-66 -147 -74 -311 -21 -433 27 -63 28 -72 32 -272 4 -220 5
-210 -53 -453 -36 -149 -45 -230 -46 -409 -1 -224 23 -341 92 -436 48 -66 106
-81 166 -42 25 15 57 92 68 162 4 25 33 126 65 225 87 268 100 324 111 485 5
80 16 201 24 270 8 69 19 197 25 285 16 243 28 293 85 370 67 89 93 320 55
490 -18 79 -14 118 18 202 17 44 36 102 42 128 14 63 14 208 -1 372 l-12 136
23 19 c12 10 32 18 45 18 25 0 80 -35 137 -86 68 -61 108 -75 253 -86 112 -8
142 -7 194 6 35 9 72 16 84 16 12 0 66 -30 121 -65 126 -83 207 -110 331 -110
108 0 142 16 173 81 20 40 20 46 7 78 -8 20 -15 38 -15 40 0 3 21 14 47 26 71
31 113 68 135 116 48 109 -41 220 -230 288 -40 14 -92 26 -115 26 -65 1 -117
16 -134 40 -59 84 -207 150 -336 150 -38 0 -125 -18 -168 -35 -13 -5 -18 3
-23 36 -8 52 -56 103 -111 118 -56 15 -141 14 -256 -5 -54 -8 -113 -14 -131
-12 -31 3 -33 5 -32 39 1 20 29 111 62 202 77 207 167 554 181 701 9 86 18
126 47 195 71 169 78 197 78 316 1 132 -10 159 -103 252 -89 88 -87 96 59 338
132 218 181 334 182 430 1 72 -17 113 -69 152 -31 24 -47 28 -112 31 -64 2
-84 -1 -126 -21z m158 -102 c19 -8 37 -23 40 -35 14 -56 -55 -216 -185 -427
-115 -186 -140 -271 -102 -346 9 -18 45 -62 79 -98 54 -55 64 -72 70 -113 13
-86 0 -157 -54 -290 -49 -122 -59 -163 -80 -336 -15 -117 -102 -436 -163 -600
-84 -222 -93 -278 -58 -335 42 -69 85 -74 330 -44 72 8 118 9 145 3 l40 -10 0
-88 c0 -75 3 -90 19 -102 29 -20 39 -18 121 25 89 48 145 58 228 41 84 -16
133 -43 192 -105 42 -43 60 -54 103 -64 29 -6 70 -11 91 -11 82 0 230 -69 256
-119 13 -27 13 -31 -5 -54 -11 -14 -50 -37 -87 -52 -103 -41 -113 -49 -113
-96 0 -25 8 -52 20 -68 l19 -28 -39 -12 c-31 -9 -53 -9 -108 3 -91 19 -129 36
-207 92 -36 25 -89 55 -117 66 -50 19 -54 19 -121 2 -55 -13 -96 -16 -193 -11
-68 3 -133 11 -146 18 -13 6 -48 33 -78 59 -76 65 -131 92 -194 92 -65 1 -107
-21 -138 -69 -26 -43 -27 -74 -14 -368 9 -186 11 -169 -59 -363 l-26 -73 21
-132 c34 -206 19 -328 -55 -437 -48 -71 -64 -133 -76 -290 -5 -74 -19 -221
-30 -327 -11 -106 -24 -256 -29 -335 -10 -154 -23 -210 -106 -458 -25 -74 -53
-175 -63 -224 -9 -49 -21 -91 -27 -93 -17 -6 -54 71 -69 144 -17 80 -20 356
-5 453 6 36 29 144 51 240 l41 175 -4 225 c-4 223 -4 226 -34 295 -25 61 -29
82 -29 165 1 86 4 103 38 185 20 49 37 104 37 122 0 18 -18 73 -40 122 -81
185 -85 234 -28 344 29 56 33 73 38 177 6 114 6 117 60 230 63 132 75 209 45
273 -24 52 -57 62 -124 38 -65 -23 -55 -26 -242 75 l-144 78 -110 7 c-60 4
-111 8 -112 8 -1 1 -18 15 -37 32 -35 30 -35 31 -20 60 19 38 49 49 134 49 81
0 108 9 163 54 71 57 102 68 217 75 121 8 146 19 185 81 40 63 49 118 42 256
-8 153 1 200 60 328 l46 101 8 170 c4 94 10 184 14 200 4 17 32 92 62 168 50
127 56 149 69 275 19 193 39 269 92 360 25 42 71 127 102 187 32 61 73 139 91
175 19 36 42 88 52 117 23 67 72 132 122 160 47 26 79 29 128 8z"/>
<path d="M29117 12776 c-55 -15 -91 -45 -119 -101 -19 -37 -20 -51 -14 -182 5
-119 3 -157 -14 -243 -14 -69 -20 -142 -20 -230 0 -72 -7 -162 -15 -207 -18
-96 -18 -141 0 -218 8 -33 15 -105 15 -161 0 -86 -6 -123 -42 -260 -38 -147
-41 -169 -42 -294 -1 -128 1 -138 26 -190 33 -67 64 -98 142 -142 49 -27 61
-39 69 -68 19 -72 5 -138 -58 -270 -60 -124 -60 -126 -60 -215 1 -86 2 -94 49
-194 27 -57 51 -123 53 -145 3 -26 -7 -94 -27 -181 -38 -161 -42 -274 -16
-393 19 -89 20 -137 1 -267 -27 -184 -17 -256 44 -316 75 -75 196 -74 271 1
62 62 81 138 89 355 7 180 7 180 45 270 21 50 55 131 74 180 l36 90 4 245 c3
158 0 284 -8 356 -10 89 -10 121 0 165 22 95 54 137 64 87 3 -13 7 -129 9
-258 3 -269 9 -294 88 -365 140 -126 256 -274 392 -500 20 -33 79 -107 131
-163 125 -137 129 -147 131 -377 l2 -180 48 -120 c56 -140 67 -180 94 -335 24
-138 69 -236 140 -309 59 -60 98 -81 166 -88 73 -8 137 23 176 85 26 41 29 55
29 128 0 123 -13 169 -99 356 -43 95 -84 193 -91 218 -11 39 -8 289 5 480 4
72 -16 225 -41 298 -27 82 -72 167 -175 327 -71 111 -68 94 -60 310 6 135 -24
207 -148 364 -109 136 -179 203 -256 242 -47 25 -69 43 -81 67 -25 54 -13 68
111 126 120 57 183 96 255 159 59 51 79 61 191 92 52 14 118 41 148 58 78 47
209 189 256 278 35 66 39 83 43 161 9 174 -28 289 -130 416 -39 48 -86 119
-104 159 -18 39 -49 89 -68 111 -36 39 -36 40 -22 78 8 22 24 57 35 79 46 87
19 189 -72 270 -94 86 -154 101 -299 80 -127 -19 -185 -9 -312 55 -66 33 -111
50 -136 50 -57 0 -153 -53 -204 -113 -25 -29 -73 -85 -108 -125 -135 -155
-160 -190 -199 -267 -22 -44 -44 -84 -48 -88 -4 -4 -18 18 -31 50 -18 48 -24
88 -31 228 -11 208 -25 322 -44 369 -23 54 -82 114 -123 126 -45 12 -55 12
-115 -4z m121 -134 c25 -33 33 -91 43 -302 9 -173 15 -226 31 -270 11 -31 23
-98 28 -156 4 -55 13 -110 19 -122 16 -30 76 -40 102 -16 11 10 56 90 101 178
82 164 101 192 211 314 34 38 84 95 110 126 55 63 117 101 153 92 13 -4 49
-21 81 -40 116 -68 203 -81 403 -62 71 7 91 6 115 -7 65 -36 115 -97 115 -140
0 -16 -14 -54 -31 -83 -59 -104 -57 -142 10 -221 22 -27 53 -77 69 -113 16
-36 63 -107 105 -159 93 -116 111 -167 112 -321 0 -103 -1 -107 -35 -164 -41
-68 -138 -172 -195 -209 -22 -14 -83 -38 -135 -53 -121 -34 -148 -48 -240
-124 -50 -41 -117 -82 -200 -122 -69 -33 -140 -74 -158 -91 -55 -53 -63 -126
-22 -207 23 -44 53 -72 110 -100 73 -37 117 -77 216 -199 139 -170 139 -171
139 -376 0 -192 -4 -179 100 -338 86 -132 133 -228 156 -313 20 -75 20 -96 15
-379 -8 -355 -10 -343 99 -578 82 -178 98 -233 93 -327 -3 -55 -6 -66 -30 -83
-57 -43 -147 10 -207 123 -24 44 -39 95 -56 188 -30 166 -38 196 -91 325 l-44
108 0 148 c0 255 -20 312 -165 470 -52 58 -107 125 -122 150 -110 191 -260
389 -352 468 -42 35 -81 75 -88 87 -8 15 -14 105 -18 262 -6 278 -17 333 -68
365 -42 26 -108 21 -143 -12 -35 -32 -71 -114 -85 -192 -10 -53 -10 -87 -1
-156 7 -48 12 -193 12 -321 0 -259 -6 -296 -66 -428 -83 -179 -86 -191 -94
-392 -8 -183 -16 -231 -44 -275 -20 -30 -63 -44 -103 -33 -52 14 -60 57 -39
220 20 164 20 226 1 320 -24 111 -20 199 12 329 20 82 28 139 28 204 0 87 -2
94 -50 195 -72 156 -72 175 6 341 56 120 63 142 67 211 5 86 -9 157 -39 200
-12 16 -47 42 -79 58 -61 31 -105 75 -118 118 -4 15 -7 74 -6 132 1 90 7 129
43 265 37 141 43 174 44 275 0 81 -5 137 -18 192 -18 73 -18 81 -2 171 10 54
17 145 17 218 0 84 7 158 21 229 17 89 19 125 13 243 -7 136 -7 138 17 163 21
23 29 25 69 19 25 -3 51 -14 58 -23z"/>
<path d="M29963 11910 c-91 -46 -155 -119 -218 -253 -58 -124 -72 -140 -130
-156 -55 -15 -80 -34 -111 -87 -31 -52 -43 -152 -25 -205 7 -20 52 -76 109
-135 77 -80 106 -118 141 -187 98 -196 200 -203 376 -24 61 62 92 103 123 164
54 109 59 158 33 310 -12 67 -21 143 -21 170 0 44 4 53 38 84 20 20 64 56 97
81 93 71 110 93 110 143 0 96 -71 125 -305 125 -154 0 -158 0 -217 -30z m360
-86 c20 -4 37 -12 37 -18 0 -6 -39 -40 -86 -75 -113 -83 -144 -131 -144 -219
0 -35 9 -119 21 -185 25 -146 19 -194 -40 -284 -45 -70 -142 -167 -183 -184
-42 -17 -56 -6 -103 83 -49 92 -75 127 -171 226 -66 68 -74 80 -74 115 0 62
22 93 81 112 74 25 128 82 168 180 58 140 109 203 193 240 35 15 229 20 301 9z"/>
<path d="M27382 12274 c-73 -19 -162 -65 -231 -118 -96 -74 -293 -312 -347
-419 -25 -49 -37 -58 -179 -149 -175 -111 -267 -247 -305 -453 -12 -60 -26
-134 -31 -163 -8 -40 -26 -72 -76 -140 -80 -106 -120 -188 -134 -273 -19 -117
4 -202 89 -333 88 -134 124 -300 102 -475 -15 -120 -15 -449 0 -516 31 -137
118 -204 251 -191 88 9 121 -1 220 -69 43 -29 94 -58 115 -65 118 -36 123 -39
151 -102 34 -76 88 -123 158 -138 62 -13 109 -4 222 41 75 30 81 31 155 21 45
-5 96 -6 122 -1 154 28 438 253 581 458 32 46 84 111 115 145 109 119 192 250
230 366 30 89 31 222 2 303 -23 64 -152 270 -218 347 -94 110 -97 190 -15 375
100 223 100 227 101 427 0 208 -8 252 -65 375 -24 51 -46 115 -50 145 -10 83
-34 158 -65 202 -40 59 -239 249 -280 268 -19 9 -80 37 -135 63 -55 25 -136
55 -180 66 -95 22 -226 24 -303 3z m293 -115 c71 -19 269 -111 310 -144 70
-57 210 -204 223 -237 8 -17 20 -72 28 -120 10 -63 26 -112 53 -166 55 -110
63 -159 59 -357 l-3 -170 -67 -150 c-80 -179 -92 -225 -86 -314 6 -82 40 -162
95 -223 49 -54 167 -233 196 -296 28 -64 27 -185 -2 -262 -34 -90 -104 -200
-185 -290 -42 -47 -106 -126 -141 -176 -108 -152 -290 -313 -430 -381 l-70
-34 -110 7 c-108 6 -112 5 -190 -27 -98 -39 -165 -48 -199 -25 -14 8 -42 48
-62 87 -21 39 -47 77 -58 84 -12 8 -56 25 -99 39 -49 15 -105 43 -152 75 -102
71 -140 82 -253 79 -91 -3 -94 -2 -117 25 -13 15 -29 44 -34 65 -15 50 -14
390 1 508 22 186 -21 376 -121 533 -71 110 -88 170 -72 257 14 74 41 126 109
210 73 92 89 132 118 290 27 151 50 220 95 288 40 60 123 133 206 182 112 66
140 90 178 159 91 162 295 388 401 443 94 49 156 63 254 57 47 -3 103 -10 125
-16z"/>
<path d="M27222 11479 c-76 -37 -150 -117 -198 -213 l-34 -69 0 -154 c0 -96
-4 -163 -11 -176 -7 -12 -49 -60 -94 -107 -145 -152 -171 -222 -162 -445 8
-222 41 -343 107 -398 35 -30 99 -50 132 -42 33 8 80 -25 114 -79 16 -25 46
-69 66 -97 20 -28 42 -74 48 -102 21 -90 36 -117 75 -133 37 -15 69 -12 117
13 17 8 69 14 137 16 106 2 111 3 140 31 66 63 61 192 -13 376 -80 200 -82
246 -16 403 46 109 75 239 67 303 -6 58 -36 95 -115 145 -95 59 -192 147 -209
188 -11 26 -14 61 -11 123 4 76 8 95 42 159 70 133 60 239 -25 273 -57 23 -88
20 -157 -15z m118 -115 c0 -14 -15 -55 -34 -92 -48 -93 -59 -145 -54 -259 3
-75 9 -108 26 -140 24 -46 124 -139 210 -195 97 -63 102 -67 102 -96 -1 -55
-29 -160 -70 -255 -47 -111 -61 -204 -41 -282 7 -26 34 -106 60 -179 55 -149
66 -200 52 -239 -10 -26 -11 -26 -99 -24 -69 1 -97 -2 -131 -18 -42 -19 -44
-19 -57 0 -8 10 -14 33 -14 50 0 36 -107 216 -166 278 -45 48 -105 76 -164 77
-25 0 -50 4 -56 8 -43 28 -79 230 -72 402 6 133 20 161 140 288 123 129 128
141 128 331 0 135 3 160 20 197 30 61 98 134 144 155 59 26 76 24 76 -7z"/>
<path d="M18685 12201 c-97 -25 -150 -86 -234 -267 -73 -157 -91 -219 -91
-320 0 -56 -8 -94 -39 -185 -25 -70 -44 -148 -50 -204 -11 -96 -27 -146 -97
-295 -33 -73 -51 -131 -74 -245 -52 -256 -46 -244 -148 -309 -48 -30 -107 -76
-132 -101 -25 -26 -61 -55 -81 -65 -56 -29 -132 -104 -184 -180 -28 -42 -72
-90 -106 -116 -67 -52 -93 -99 -114 -209 -14 -73 -59 -175 -76 -175 -15 0 -26
64 -16 95 30 96 37 139 37 223 0 71 4 101 19 130 42 83 62 174 72 337 12 196
19 245 69 460 72 314 76 433 17 548 -53 104 -143 132 -224 71 -45 -34 -173
-283 -229 -446 -26 -73 -64 -173 -86 -223 -75 -169 -90 -207 -102 -266 -6 -32
-14 -61 -18 -64 -3 -3 -18 29 -32 72 -45 136 -103 186 -210 182 -35 -1 -68 1
-75 5 -20 13 -42 77 -78 236 -54 237 -97 316 -199 366 -88 43 -172 24 -211
-49 -14 -26 -18 -61 -19 -182 -2 -132 -18 -307 -30 -326 -2 -4 3 -96 11 -205
20 -256 10 -314 -70 -439 -18 -29 -36 -61 -39 -72 -4 -12 -13 -26 -21 -33 -11
-9 -18 -1 -39 40 -14 27 -36 69 -50 93 -31 54 -42 95 -61 245 -11 83 -26 148
-45 197 -45 113 -59 180 -79 382 -20 196 -29 247 -61 350 -13 44 -20 107 -25
225 -9 255 -29 336 -95 392 -83 69 -187 36 -275 -88 -65 -93 -74 -116 -126
-324 -26 -107 -55 -202 -64 -212 -11 -12 -38 -19 -87 -24 -132 -12 -165 -52
-268 -316 -124 -316 -125 -327 -84 -485 14 -55 32 -129 39 -164 l14 -64 -60
-205 c-68 -233 -117 -358 -195 -501 -70 -128 -84 -169 -84 -250 0 -82 19 -155
65 -247 35 -71 35 -74 35 -200 0 -104 4 -137 19 -170 22 -49 61 -81 107 -90
85 -16 150 27 179 118 9 29 41 91 70 138 100 162 107 193 66 293 -31 76 -22
106 59 207 64 81 81 121 99 250 12 81 90 254 124 274 19 12 14 15 107 -59 85
-68 112 -127 195 -415 84 -294 91 -316 125 -365 15 -22 43 -82 63 -134 65
-167 121 -231 205 -231 56 0 84 12 125 55 67 69 81 168 53 363 -34 226 -46
531 -21 539 6 1 28 -25 50 -60 l40 -62 5 -150 c4 -122 9 -157 25 -190 47 -96
141 -148 226 -125 111 30 205 219 171 343 -8 29 -7 49 4 85 15 48 20 216 9
268 -4 16 -18 61 -32 100 -13 39 -23 86 -21 104 l3 34 74 -63 c42 -37 90 -90
112 -125 21 -34 56 -88 79 -121 70 -100 227 -403 262 -504 44 -127 77 -177
134 -202 33 -15 56 -19 84 -14 82 14 110 62 134 229 8 54 18 102 24 108 5 5
15 -21 25 -71 18 -92 53 -165 104 -222 47 -52 100 -83 204 -118 46 -15 116
-44 155 -64 38 -20 94 -42 124 -48 73 -16 215 -7 263 15 52 26 127 104 173
183 l38 65 27 -131 c35 -170 52 -212 112 -278 125 -136 247 -155 358 -56 99
90 118 179 79 374 -27 137 -64 252 -130 410 -27 65 -55 140 -61 166 -7 30 -11
136 -10 278 0 126 -4 277 -9 336 -7 73 -7 131 0 185 11 81 81 361 145 584 57
197 52 280 -26 401 -18 28 -32 66 -35 95 -9 75 29 264 92 458 72 220 74 297
11 364 -43 47 -127 70 -192 53z m102 -119 c22 -14 31 -57 23 -104 -5 -25 -29
-106 -54 -179 -59 -175 -89 -320 -90 -439 -1 -90 1 -98 33 -155 63 -113 65
-119 65 -175 -1 -34 -21 -124 -52 -235 -122 -432 -145 -559 -131 -736 5 -57 8
-205 8 -329 -1 -133 4 -251 11 -290 6 -35 34 -118 62 -185 69 -164 105 -272
128 -387 27 -132 26 -191 -5 -243 -47 -80 -112 -97 -181 -46 -93 67 -110 103
-159 356 -22 109 -43 190 -54 205 -20 28 -65 38 -87 19 -8 -6 -40 -63 -70
-126 -40 -81 -71 -129 -107 -167 -61 -62 -90 -70 -214 -57 -65 7 -94 15 -145
44 -34 19 -106 49 -158 66 -110 36 -202 100 -226 157 -17 40 -38 293 -29 342
3 18 22 70 41 115 19 45 41 114 49 154 18 92 22 100 87 151 29 24 69 66 88 93
58 84 129 157 185 188 29 16 66 47 83 68 16 21 61 56 99 78 97 57 149 107 167
163 9 26 31 122 50 213 23 111 44 186 64 225 65 130 103 243 112 333 6 58 22
124 45 188 29 79 38 121 45 213 10 128 15 147 92 310 66 138 105 180 171 180
23 0 47 -4 54 -8z m-3466 -329 c22 -52 39 -203 39 -354 0 -62 7 -108 25 -170
30 -101 39 -155 60 -364 17 -172 30 -233 76 -359 18 -49 37 -135 49 -218 23
-157 36 -198 90 -288 70 -118 73 -139 75 -470 1 -162 4 -315 8 -340 44 -308
46 -390 10 -438 -48 -64 -93 -27 -154 126 -23 59 -55 125 -70 148 -26 39 -58
136 -148 451 -41 143 -90 255 -133 304 -13 15 -50 47 -83 72 -33 25 -71 57
-84 71 -57 63 -143 10 -227 -140 -52 -93 -81 -176 -89 -259 -9 -81 -17 -100
-78 -173 -95 -114 -115 -204 -70 -309 26 -59 26 -63 -36 -158 -24 -38 -59
-102 -77 -140 -18 -39 -42 -79 -52 -89 -20 -17 -21 -17 -41 3 -19 19 -21 33
-21 155 l0 133 -47 99 c-39 84 -47 110 -51 174 l-4 75 80 155 c91 177 134 287
191 489 22 78 48 163 56 189 20 58 16 100 -31 282 -18 74 -34 149 -34 165 1
17 16 71 36 120 19 50 52 135 73 190 45 118 83 196 105 214 9 7 46 15 82 18
139 9 169 50 230 315 40 177 74 257 136 322 59 61 82 61 109 -1z m2027 -473
c56 -75 52 -180 -18 -486 -48 -208 -57 -271 -70 -472 -9 -160 -23 -219 -69
-310 -17 -34 -21 -59 -21 -147 0 -85 -4 -117 -22 -163 -23 -61 -25 -96 -13
-253 6 -79 3 -121 -14 -225 -12 -71 -25 -149 -29 -174 -6 -39 -11 -45 -34 -48
-34 -4 -47 16 -88 133 -18 50 -56 135 -85 190 -133 253 -161 303 -196 350 -20
28 -53 78 -73 112 -22 38 -66 88 -112 130 -54 48 -85 85 -106 128 -40 79 -75
125 -96 125 -9 0 -27 -8 -40 -18 -50 -39 -55 -282 -7 -426 30 -92 34 -201 11
-309 -12 -54 -12 -80 -3 -122 9 -45 8 -60 -7 -99 -44 -115 -117 -140 -172 -59
-16 23 -20 53 -24 185 l-5 156 -47 69 c-72 105 -81 133 -82 254 -1 105 -1 106
36 166 107 173 126 257 109 473 -15 191 -15 251 -1 335 7 39 14 135 15 215 1
80 3 150 4 157 2 20 38 25 68 9 69 -36 96 -94 142 -306 35 -160 77 -261 124
-295 24 -16 41 -20 102 -17 70 2 74 1 99 -28 13 -17 36 -68 50 -114 51 -165
153 -331 200 -324 18 3 22 12 27 68 4 36 7 100 8 142 2 114 26 210 85 338 30
63 77 182 105 264 43 124 155 364 194 414 15 19 32 14 55 -18z"/>
<path d="M18102 9990 c-24 -11 -69 -44 -100 -74 -33 -31 -86 -67 -124 -85 -92
-44 -148 -116 -148 -192 0 -17 -12 -56 -27 -87 -33 -71 -40 -143 -20 -213 20
-67 53 -112 112 -154 103 -74 204 -64 290 28 98 104 209 242 226 282 59 134
44 382 -27 459 -30 31 -81 56 -116 56 -13 0 -42 -9 -66 -20z m88 -100 c30 -16
44 -77 44 -190 0 -126 -14 -163 -96 -255 -29 -34 -70 -84 -91 -112 -20 -28
-48 -58 -62 -67 -82 -54 -205 40 -205 155 0 17 14 61 30 99 17 38 30 83 30
102 0 49 23 74 103 114 39 20 96 60 126 89 48 44 86 73 99 75 2 0 12 -4 22
-10z"/>
<path d="M15038 11001 c-17 -19 -42 -81 -68 -163 -23 -73 -61 -171 -85 -218
-91 -182 -116 -333 -63 -389 23 -25 75 -27 163 -7 58 14 61 14 85 -9 64 -59
152 -73 195 -31 51 51 58 192 14 326 -18 57 -20 78 -13 170 10 147 7 187 -20
246 -29 62 -73 96 -135 102 -43 4 -50 1 -73 -27z m103 -118 c11 -12 14 -57 14
-187 0 -150 3 -179 23 -240 27 -83 30 -176 6 -176 -9 0 -33 14 -54 30 -45 36
-107 47 -169 30 -23 -6 -46 -9 -49 -5 -14 14 22 127 77 244 33 69 67 153 76
186 23 80 45 135 55 135 4 0 14 -7 21 -17z"/>
<path d="M6493 12191 c-38 -7 -80 -30 -145 -82 l-27 -22 -61 23 c-139 52 -221
-24 -207 -192 3 -38 16 -100 28 -138 l23 -70 -23 -98 c-48 -199 -54 -237 -47
-275 8 -45 53 -98 108 -129 l40 -23 -5 -80 c-3 -57 -13 -100 -32 -145 -112
-265 -118 -283 -123 -367 -4 -74 -2 -88 22 -135 14 -29 55 -87 90 -128 l65
-75 1 -115 c0 -63 -7 -176 -16 -250 -19 -160 -15 -228 20 -332 24 -73 25 -82
14 -162 -14 -109 -8 -137 54 -253 l50 -96 -7 -312 c-7 -275 -6 -318 9 -369 40
-136 123 -216 225 -216 50 0 57 3 91 39 66 70 75 123 72 431 -1 163 2 285 9
318 6 29 30 99 54 156 106 254 144 430 116 543 -7 26 -35 98 -62 159 -31 72
-49 126 -49 150 0 51 31 115 119 248 39 59 74 119 77 133 4 13 4 55 2 91 -8
106 -47 165 -154 235 -87 57 -115 128 -116 295 -1 71 7 122 45 277 25 105 49
215 52 245 9 73 -8 163 -53 279 -35 92 -35 95 -24 162 25 143 9 211 -58 255
-41 27 -110 37 -177 25z m126 -125 c11 -8 12 -25 5 -81 -16 -135 -10 -191 31
-295 53 -133 53 -198 -3 -420 -55 -219 -64 -283 -52 -400 18 -169 55 -241 164
-312 75 -49 106 -95 106 -160 0 -39 -11 -61 -80 -169 -44 -68 -89 -148 -100
-177 -28 -74 -26 -152 6 -227 87 -201 94 -220 94 -278 0 -82 -31 -196 -106
-385 -36 -89 -70 -188 -75 -220 -7 -37 -9 -136 -4 -287 6 -194 4 -241 -9 -299
-19 -78 -29 -96 -59 -96 -29 0 -83 63 -102 119 -14 43 -16 95 -13 379 l3 330
-54 104 -54 105 13 99 12 99 -31 93 c-35 105 -36 128 -16 302 18 145 21 363 7
401 -6 14 -40 61 -77 104 -36 43 -73 92 -82 108 -24 48 -13 137 32 243 110
260 107 251 112 353 7 127 -5 157 -81 202 -35 21 -59 43 -63 57 -3 12 11 87
31 166 41 165 44 201 16 281 -23 66 -36 183 -22 203 6 10 21 8 67 -8 96 -33
143 -25 207 37 51 49 134 63 177 29z"/>
<path d="M8715 12085 c-79 -17 -117 -33 -233 -101 -102 -59 -173 -120 -198
-167 -9 -16 -21 -67 -29 -114 -8 -48 -20 -92 -27 -98 -7 -7 -52 -24 -100 -39
-176 -54 -256 -94 -330 -166 -94 -93 -116 -145 -127 -297 -10 -131 -18 -158
-96 -323 -57 -120 -74 -191 -74 -306 0 -83 -24 -140 -117 -278 -157 -232 -184
-292 -184 -403 0 -87 49 -153 114 -153 56 0 57 -6 20 -130 -20 -65 -37 -147
-40 -190 -5 -65 -3 -81 18 -119 37 -72 68 -82 228 -79 145 2 166 -3 190 -47
11 -21 12 -36 2 -84 -27 -130 -8 -188 97 -290 39 -38 72 -79 75 -92 3 -13 10
-72 16 -131 22 -216 70 -298 175 -298 83 0 150 62 214 195 22 44 73 150 114
235 79 165 137 244 186 255 17 3 45 -1 70 -11 27 -11 58 -15 91 -12 51 5 78
20 257 143 l88 60 180 1 c197 0 239 8 302 53 45 32 132 147 171 225 37 75 42
184 10 246 -61 119 -174 120 -307 3 l-55 -48 -77 0 -76 0 -136 83 c-215 130
-236 135 -346 75 l-68 -38 -69 23 c-125 40 -167 31 -304 -69 -38 -27 -89 -58
-114 -70 -42 -18 -48 -19 -75 -4 -42 21 -61 53 -61 101 0 53 20 101 104 242
113 190 150 274 150 346 0 92 -35 149 -146 231 -32 23 -38 33 -38 64 0 20 9
56 21 80 43 97 123 176 343 345 51 39 153 128 225 197 l131 126 0 50 c0 37 -6
58 -25 84 l-26 34 22 17 c34 29 145 58 218 58 82 0 278 17 351 31 75 14 106
26 171 70 105 70 159 153 159 242 0 106 -85 173 -234 184 -69 5 -98 0 -318
-48 -66 -15 -99 -4 -173 56 -23 19 -58 41 -78 50 -44 18 -149 18 -232 0z m198
-106 c12 -7 41 -30 65 -51 83 -76 144 -84 319 -42 139 34 242 37 298 8 35 -18
40 -26 43 -59 3 -36 -1 -43 -62 -101 -93 -88 -158 -106 -458 -120 -192 -8
-309 -47 -395 -129 -35 -34 -43 -48 -43 -78 0 -41 25 -73 65 -83 14 -3 25 -8
25 -11 0 -15 -236 -232 -340 -311 -176 -135 -298 -259 -341 -347 -29 -60 -34
-80 -34 -145 0 -90 9 -106 94 -170 33 -25 68 -60 77 -78 23 -49 5 -109 -73
-244 -157 -272 -174 -309 -174 -394 -1 -96 45 -166 134 -204 84 -36 137 -19
303 96 51 35 102 64 115 64 12 0 55 -11 96 -25 82 -29 102 -27 179 16 84 47
133 39 239 -41 65 -48 154 -98 197 -111 47 -14 148 -13 197 2 23 7 68 36 102
65 74 64 106 75 131 44 22 -27 24 -97 4 -145 -18 -41 -94 -151 -128 -182 -41
-39 -75 -44 -258 -44 -207 1 -213 -1 -385 -123 -118 -83 -151 -95 -207 -72
-106 45 -197 -7 -302 -171 -44 -69 -62 -103 -171 -338 -47 -102 -95 -165 -126
-165 -37 0 -54 51 -73 228 -17 154 -33 190 -116 261 -73 61 -87 96 -72 169 24
116 8 178 -62 240 -51 45 -96 54 -235 46 -117 -7 -119 -7 -131 16 -28 51 21
244 105 417 68 138 71 175 21 200 -41 19 -45 17 -140 -66 -32 -29 -63 -50 -70
-48 -18 6 -19 74 0 130 9 29 35 79 57 112 167 246 208 317 221 380 4 17 9 77
11 134 4 102 6 106 64 230 85 182 98 228 105 377 5 97 24 139 93 207 52 50
148 97 285 137 119 36 146 54 173 113 13 29 26 79 30 112 12 99 28 119 170
202 109 63 133 74 199 88 77 17 151 18 179 4z"/>
</g>
</svg>
